<?xml version="1.0" encoding="UTF-8"?>
<!DOCTYPE svg PUBLIC "-//W3C//DTD SVG 1.1//EN" "http://www.w3.org/Graphics/SVG/1.1/DTD/svg11.dtd">
<!-- Creator: CorelDRAW X7 -->
<svg xmlns="http://www.w3.org/2000/svg" xml:space="preserve" width="164.428mm" height="45.1742mm" version="1.1" style="shape-rendering:geometricPrecision; text-rendering:geometricPrecision; image-rendering:optimizeQuality; fill-rule:evenodd; clip-rule:evenodd"
viewBox="0 0 16443 4517"
 xmlns:xlink="http://www.w3.org/1999/xlink">
 <defs>
  <style type="text/css">
   <![CDATA[
    .fil1 {fill:#444444;fill-rule:nonzero}
    .fil0 {fill:url(#id0)}
   ]]>
  </style>
  <linearGradient id="id0" gradientUnits="userSpaceOnUse" x1="2736.6" y1="3538.93" x2="3153.04" y2="978.49">
   <stop offset="0" style="stop-opacity:1; stop-color:#06B3FA"/>
   <stop offset="1" style="stop-opacity:1; stop-color:#1AD2D1"/>
  </linearGradient>
 </defs>
 <g id="Layer_x0020_1">
  <metadata id="CorelCorpID_0Corel-Layer"/>
  <path class="fil0" d="M1948 1936c643,-1262 2135,-2098 3942,-1323 -1204,-874 -2940,-1030 -4005,995 -215,-142 -431,-284 -647,-425 104,781 208,1563 313,2345 641,-239 1210,-622 1679,-1198 -128,-85 -257,-169 -386,-253 335,-386 725,-722 1220,-959 84,546 145,1160 229,1706 -150,-81 -301,-161 -451,-241 -625,1201 -1806,2029 -3842,1330 1593,990 2957,856 3887,-1089 202,116 480,267 681,384 -123,-802 -246,-1603 -369,-2405 -688,323 -1225,767 -1661,1291 130,84 260,168 390,252 -340,387 -731,683 -1197,847 -83,-534 -145,-1088 -229,-1623 149,122 298,244 446,366z"/>
  <path class="fil1" d="M6171 2744c0,128 -44,225 -133,292 -88,67 -221,100 -398,100 -90,0 -167,-6 -231,-18 -64,-13 -123,-30 -179,-54l0 -281c63,30 134,55 213,75 79,20 148,30 209,30 123,0 185,-36 185,-107 0,-27 -9,-49 -25,-65 -17,-17 -45,-36 -85,-57 -40,-21 -93,-46 -160,-74 -96,-40 -166,-77 -211,-112 -44,-34 -77,-73 -98,-117 -20,-44 -30,-99 -30,-163 0,-111 42,-196 128,-256 86,-61 207,-91 365,-91 150,0 295,33 437,98l-102 244c-63,-27 -121,-49 -175,-66 -54,-17 -109,-25 -166,-25 -100,0 -150,27 -150,81 0,31 16,57 49,79 32,23 102,56 211,99 97,40 169,77 214,111 45,34 79,73 100,118 22,44 32,98 32,159zm251 -1197c0,-111 61,-166 184,-166 124,0 185,55 185,166 0,53 -15,94 -46,123 -31,29 -77,44 -139,44 -123,0 -184,-56 -184,-167zm354 1566l-340 0 0 -1244 340 0 0 1244zm880 -248c59,0 130,-13 214,-39l0 253c-85,38 -189,57 -312,57 -136,0 -235,-34 -297,-103 -62,-69 -93,-171 -93,-309l0 -600 -162 0 0 -144 187 -113 98 -263 217 0 0 265 348 0 0 255 -348 0 0 600c0,48 14,84 41,106 27,24 62,35 107,35zm981 -777c-73,0 -129,23 -170,68 -41,46 -64,110 -70,194l477 0c-2,-84 -24,-148 -66,-194 -42,-45 -100,-68 -171,-68zm47 1048c-200,0 -357,-55 -470,-166 -112,-110 -169,-267 -169,-469 0,-209 52,-370 157,-484 104,-114 248,-171 432,-171 176,0 313,50 411,150 98,100 147,238 147,415l0 165 -803 0c4,96 32,172 86,226 53,54 128,81 225,81 75,0 146,-8 213,-23 66,-16 136,-41 209,-75l0 263c-60,30 -123,52 -191,67 -67,14 -149,21 -247,21zm1632 -186l-10 0c-85,124 -213,186 -383,186 -159,0 -284,-54 -373,-164 -88,-109 -133,-264 -133,-465 0,-201 45,-357 134,-469 89,-111 213,-167 372,-167 165,0 292,60 381,181l14 0 -7 -88 -5 -86 0 -497 185 0 0 1732 -150 0 -25 -163zm-370 31c126,0 218,-34 275,-103 57,-68 85,-179 85,-332l0 -39c0,-173 -29,-296 -86,-370 -58,-74 -150,-111 -276,-111 -108,0 -191,42 -249,127 -57,84 -86,203 -86,356 0,156 28,274 86,353 57,79 141,119 251,119zm1451 155c-180,0 -322,-55 -426,-165 -105,-109 -157,-262 -157,-457 0,-197 49,-353 145,-469 97,-116 227,-174 391,-174 152,0 273,50 362,151 89,101 134,233 134,398l0 117 -840 0c4,143 40,252 108,326 69,74 165,111 290,111 131,0 261,-27 390,-82l0 165c-66,28 -128,48 -186,61 -58,12 -128,18 -211,18zm-50 -1110c-98,0 -176,32 -234,96 -58,63 -92,152 -103,264l638 0c0,-116 -26,-205 -78,-267 -52,-62 -126,-93 -223,-93zm1208 957c33,0 64,-2 94,-7 31,-5 55,-10 73,-15l0 142c-21,9 -50,17 -89,24 -39,6 -74,9 -105,9 -236,0 -354,-124 -354,-373l0 -725 -175 0 0 -89 175 -77 78 -261 107 0 0 283 354 0 0 144 -354 0 0 717c0,74 17,130 52,170 35,39 83,58 144,58zm1463 -480c0,199 -50,354 -150,466 -100,111 -239,167 -415,167 -109,0 -206,-25 -291,-77 -84,-51 -149,-124 -195,-220 -47,-96 -70,-208 -70,-336 0,-199 50,-354 150,-465 99,-111 237,-167 413,-167 171,0 307,57 407,170 101,114 151,268 151,462zm-929 0c0,155 31,274 93,356 63,82 154,122 275,122 121,0 213,-40 276,-122 62,-81 94,-200 94,-356 0,-155 -32,-273 -94,-354 -63,-80 -156,-120 -278,-120 -121,0 -212,39 -274,118 -61,80 -92,198 -92,356zm1427 -609l0 791c0,99 22,174 68,223 45,49 116,73 212,73 128,0 221,-35 280,-104 59,-70 89,-184 89,-342l0 -641 185 0 0 1219 -153 0 -26 -163 -11 0c-37,60 -90,106 -157,138 -67,32 -144,48 -230,48 -149,0 -260,-35 -334,-105 -73,-71 -110,-184 -110,-339l0 -798 187 0zm1781 -23c54,0 103,5 146,14l-26 172c-50,-11 -95,-17 -133,-17 -99,0 -183,40 -253,120 -70,80 -105,180 -105,299l0 654 -185 0 0 -1219 152 0 21 225 10 0c45,-79 99,-140 163,-183 64,-43 134,-65 210,-65z"/>
 </g>
</svg>
